<svg width="24" height="24" viewBox="0 0 24 24" fill="none" xmlns="http://www.w3.org/2000/svg">
<g id="Group">
<path id="Icon" d="M21.3755 6.96626C21.4709 6.48897 21.0501 6.06817 20.5729 6.16363L14.7872 7.32075C14.253 7.4276 14.0534 8.08671 14.4387 8.47193L16.1529 10.1861L12.4495 13.8895L9.51046 10.9505C9.34168 10.7817 9.11276 10.6869 8.87407 10.6869C8.63537 10.6869 8.40645 10.7817 8.23767 10.9505L2.87457 16.3136C2.52309 16.6651 2.52309 17.2349 2.87457 17.5864C3.22604 17.9379 3.79589 17.9379 4.14736 17.5864L8.87407 12.8597L11.8131 15.7987C12.1645 16.1502 12.7344 16.1502 13.0859 15.7987L17.4257 11.4589L19.0672 13.1004C19.4524 13.4857 20.1115 13.2861 20.2184 12.7519L21.3755 6.96626Z" fill="#52A86E"/>
</g>
</svg>
