<svg width="46" height="46" viewBox="0 0 46 46" fill="none" xmlns="http://www.w3.org/2000/svg">
<g id="Misc Icons / Flag Round" clip-path="url(#clip0_21_6930)">
<path id="Vector" d="M23 46C35.7025 46 46 35.7025 46 23C46 10.2975 35.7025 0 23 0C10.2975 0 0 10.2975 0 23C0 35.7025 10.2975 46 23 46Z" fill="#F0F0F0"/>
<g id="Group">
<path id="Vector_2" d="M23 0C13.8814 0 6.00248 5.30662 2.28223 13H43.7177C39.9976 5.30662 32.1185 0 23 0Z" fill="#338AF3"/>
<path id="Vector_3" d="M23 46C32.1185 46 39.9976 40.6934 43.7178 33H2.28223C6.00248 40.6934 13.8814 46 23 46Z" fill="#338AF3"/>
</g>
<path id="Vector_4" d="M29.8744 23L27.0654 24.3213L28.5612 27.0417L25.511 26.4582L25.1245 29.5395L23 27.2732L20.8754 29.5395L20.489 26.4582L17.4388 27.0416L18.9345 24.3212L16.1256 23L18.9346 21.6787L17.4388 18.9584L20.4889 19.5418L20.8755 16.4605L23 18.7268L25.1246 16.4605L25.511 19.5418L28.5613 18.9584L27.0655 21.6788L29.8744 23Z" fill="#FFDA44"/>
</g>
<defs>
<clipPath id="clip0_21_6930">
<rect width="46" height="46" fill="white"/>
</clipPath>
</defs>
</svg>
